<?xml version="1.0" standalone="no"?>
<!DOCTYPE svg PUBLIC "-//W3C//DTD SVG 20010904//EN"
 "http://www.w3.org/TR/2001/REC-SVG-20010904/DTD/svg10.dtd">
<svg version="1.0" xmlns="http://www.w3.org/2000/svg"
 width="180.000000pt" height="180.000000pt" viewBox="0 0 180.000000 180.000000"
 preserveAspectRatio="xMidYMid meet">
<metadata>
Created by potrace 1.15, written by Peter Selinger 2001-2017
</metadata>
<g transform="translate(0.000000,180.000000) scale(0.100000,-0.100000)"
fill="#000000" stroke="none">
<path d="M290 1378 c-108 -73 -108 -203 0 -276 27 -18 44 -23 72 -19 36 5 41
2 93 -58 48 -54 54 -66 49 -93 -8 -38 10 -94 43 -132 24 -29 52 -42 37 -18 -4
7 -3 8 5 4 6 -4 9 -12 6 -17 -10 -15 47 -31 85 -24 48 9 117 81 126 132 3 21
14 47 23 58 15 19 15 19 -4 5 -20 -15 -20 -14 -1 8 20 23 32 30 21 12 -11 -18
9 -10 40 15 30 25 26 36 -5 13 -9 -7 -5 -3 8 10 24 23 24 23 6 46 -11 12 -7 9
9 -6 15 -16 27 -26 27 -22 0 13 -42 58 -66 70 -23 12 -29 11 -60 -12 -18 -15
-32 -30 -29 -34 3 -4 -2 -13 -10 -20 -15 -12 -16 -11 -19 12 0 6 -7 13 -15 16
-9 3 -11 0 -6 -9 5 -8 4 -11 -1 -6 -5 5 -9 14 -9 20 0 6 -13 14 -30 19 -35 9
-107 -10 -99 -26 3 -6 -19 16 -50 49 -30 33 -55 64 -56 69 0 4 19 -15 42 -42
24 -28 45 -49 47 -46 2 2 -15 24 -38 49 -39 43 -42 49 -36 85 9 54 -8 99 -54
144 -51 50 -101 58 -151 24z"/>
<path d="M96 652 c-3 -5 -5 -63 -5 -130 l0 -122 52 0 c67 0 104 -10 85 -21
-10 -7 -10 -9 0 -9 16 0 34 47 27 69 -4 13 -14 16 -45 13 l-40 -4 -2 103 -2
104 -6 -110 -6 -110 -2 113 c-2 112 -2 112 -26 112 -14 0 -27 -4 -30 -8z"/>
<path d="M718 613 l-1 -48 -7 45 c-5 30 -7 36 -8 18 -2 -23 -7 -28 -29 -28
-27 -1 -73 -30 -73 -46 0 -4 11 3 24 15 17 16 32 21 52 18 l29 -4 -31 -2 c-64
-3 -99 -87 -63 -152 7 -13 12 -27 11 -31 -1 -4 8 -12 19 -19 23 -12 73 -4 64
11 -3 5 0 12 6 16 7 4 9 3 6 -3 -8 -12 15 -24 41 -22 10 1 7 4 -8 9 -24 8 -24
8 -2 9 22 1 22 3 22 131 l0 130 -25 0 c-23 0 -25 -4 -27 -47z"/>
<path d="M301 594 c-17 -7 -31 -19 -30 -26 1 -7 -3 -26 -9 -41 -17 -39 -15
-57 8 -95 12 -19 15 -30 8 -26 -7 4 -5 -2 5 -12 23 -25 88 -25 115 0 20 17 21
17 51 -5 30 -22 31 -22 85 -5 l55 18 -1 81 c0 80 -6 96 -36 97 -8 0 -10 -5 -6
-12 4 -8 3 -10 -2 -5 -5 5 -9 14 -9 20 0 22 -66 20 -97 -3 -29 -22 -30 -22
-51 -2 -32 28 -49 31 -86 16z"/>
<path d="M805 590 c-3 -5 -3 -10 1 -10 4 0 0 -8 -9 -18 -17 -18 -17 -24 -8
-154 0 -10 9 -18 19 -18 15 0 15 -2 2 -11 -12 -8 -9 -9 10 -4 28 7 80 58 80
79 0 8 -9 24 -21 37 l-21 24 16 -25 c21 -32 20 -43 -5 -71 l-20 -24 17 28 c14
24 15 32 4 55 -8 15 -12 33 -11 40 1 6 -3 12 -9 12 -5 0 -10 -5 -10 -12 0 -6
-3 -8 -7 -4 -5 4 0 14 11 21 24 18 14 45 -16 46 -22 1 -22 1 2 9 23 7 23 8 3
9 -12 1 -25 -3 -28 -9z"/>
<path d="M1000 590 l65 -7 -62 -3 c-87 -4 -86 -3 -90 -20 -4 -13 -3 -13 6 0 8
11 11 -3 11 -56 0 -42 -5 -75 -12 -83 -9 -10 -9 -12 -1 -7 6 3 14 2 18 -4 3
-5 32 -10 63 -10 31 0 62 -4 69 -8 7 -4 -20 -6 -60 -4 -40 2 -70 2 -67 -1 3
-3 36 -7 75 -9 51 -2 70 0 71 10 4 36 4 37 13 22 6 -8 8 -17 5 -21 -6 -11 30
-21 50 -13 9 3 13 10 10 15 -3 5 2 9 11 9 9 0 13 -4 10 -10 -7 -12 40 -24 56
-14 6 4 30 9 53 10 31 3 36 2 21 -5 -20 -9 -20 -10 1 -10 12 -1 28 7 35 16 12
15 12 16 -1 8 -11 -6 -10 -3 3 12 20 23 22 44 5 62 -9 9 -9 12 -1 7 6 -3 13 1
16 11 3 10 5 4 6 -13 3 -86 27 -119 68 -95 11 6 13 11 5 11 -7 0 -10 5 -6 11
5 8 9 8 14 -1 6 -10 15 -10 37 -2 18 6 36 6 44 1 18 -11 50 -11 69 1 12 7 12
12 0 34 -7 14 -10 29 -7 33 4 3 7 -1 7 -10 0 -20 27 -23 32 -3 2 7 10 -2 19
-21 16 -31 16 -33 0 -22 -9 6 -3 0 12 -15 36 -34 59 -33 99 3 27 25 31 32 20
43 -11 11 -12 10 -7 -3 3 -9 -2 -22 -12 -30 -16 -12 -17 -12 -7 1 15 21 17 77
3 102 -8 14 -8 18 0 14 6 -4 15 -21 20 -39 7 -26 9 -27 10 -9 1 30 -42 72 -74
72 -39 0 -65 -17 -58 -38 5 -16 5 -16 -8 0 -11 14 -27 17 -66 15 -28 -1 -49 1
-47 5 3 4 25 7 50 6 25 0 47 2 50 5 8 7 -75 7 -99 0 -16 -4 -17 -12 -11 -59 4
-37 3 -54 -5 -54 -7 0 -11 20 -11 50 l0 50 -36 0 -36 0 7 -39 c4 -24 2 -42 -4
-46 -7 -4 -11 10 -11 39 0 45 -1 46 -32 47 l-33 2 35 7 35 7 -33 2 c-25 1 -35
-4 -42 -21 -5 -13 -9 -17 -9 -10 -1 18 -76 16 -91 -3 -7 -8 -10 -26 -8 -39 3
-14 1 -31 -3 -38 -6 -8 -9 -1 -9 20 0 56 -14 71 -66 70 -24 0 -47 2 -50 5 -3
3 17 5 45 5 32 1 54 -4 62 -14 10 -13 14 -13 28 0 9 8 34 16 56 19 l40 4 -41
1 c-27 1 -46 -3 -54 -13 -12 -14 -15 -14 -30 0 -12 10 -34 14 -73 12 -43 -1
-58 2 -61 13 -3 8 -4 -19 -2 -60 2 -41 1 -63 -1 -47 -2 15 -7 25 -11 23 -4 -2
-7 25 -6 60 l1 64 -76 -2 -76 -1 65 -7z"/>
</g>
</svg>
