<?xml version="1.0" encoding="UTF-8" standalone="no"?>
<svg
   xmlns:dc="http://purl.org/dc/elements/1.1/"
   xmlns:cc="http://creativecommons.org/ns#"
   xmlns:rdf="http://www.w3.org/1999/02/22-rdf-syntax-ns#"
   xmlns:svg="http://www.w3.org/2000/svg"
   xmlns="http://www.w3.org/2000/svg"
   version="1.1"
   id="svg36446"
   viewBox="0 0 584 384"
   height="384px"
   width="584px">
  <defs
     id="defs36448">
    <radialGradient
       id="radialGradient37092"
       spreadMethod="pad"
       gradientTransform="matrix(50.991043,0,0,-50.991043,132.42383,456.94629)"
       gradientUnits="userSpaceOnUse"
       r="1"
       cy="0"
       cx="0"
       fy="0"
       fx="0">
      <stop
         id="stop37094"
         offset="0"
         style="stop-opacity:1;stop-color:#4fc6f4" />
      <stop
         id="stop37096"
         offset="0.836365"
         style="stop-opacity:1;stop-color:#3871c1" />
      <stop
         id="stop37098"
         offset="1"
         style="stop-opacity:1;stop-color:#3871c1" />
    </radialGradient>
    <radialGradient
       id="radialGradient37114"
       spreadMethod="pad"
       gradientTransform="matrix(57.923401,0,0,-57.923401,169.1333,413.69922)"
       gradientUnits="userSpaceOnUse"
       r="1"
       cy="0"
       cx="0"
       fy="0"
       fx="0">
      <stop
         id="stop37116"
         offset="0"
         style="stop-opacity:1;stop-color:#4fc6f4" />
      <stop
         id="stop37118"
         offset="0.836365"
         style="stop-opacity:1;stop-color:#3871c1" />
      <stop
         id="stop37120"
         offset="1"
         style="stop-opacity:1;stop-color:#3871c1" />
    </radialGradient>
    <radialGradient
       id="radialGradient37256"
       spreadMethod="pad"
       gradientTransform="matrix(17.843246,0,0,-17.843246,156.7373,431.61328)"
       gradientUnits="userSpaceOnUse"
       r="1"
       cy="0"
       cx="0"
       fy="0"
       fx="0">
      <stop
         id="stop37258"
         offset="0"
         style="stop-opacity:1;stop-color:#393536" />
      <stop
         id="stop37260"
         offset="1"
         style="stop-opacity:1;stop-color:#231f20" />
    </radialGradient>
    <radialGradient
       id="radialGradient37296"
       spreadMethod="pad"
       gradientTransform="matrix(37.764023,0,0,-37.764023,71.583496,479.13428)"
       gradientUnits="userSpaceOnUse"
       r="1"
       cy="0"
       cx="0"
       fy="0.0114594"
       fx="-0.0789795">
      <stop
         id="stop37298"
         offset="0"
         style="stop-opacity:1;stop-color:#ffffff" />
      <stop
         id="stop37300"
         offset="0.836365"
         style="stop-opacity:1;stop-color:#26b9f1" />
      <stop
         id="stop37302"
         offset="1"
         style="stop-opacity:1;stop-color:#26b9f1" />
    </radialGradient>
    <radialGradient
       id="radialGradient37334"
       spreadMethod="pad"
       gradientTransform="matrix(24.320785,0,0,-24.32077,73.755859,404.04785)"
       gradientUnits="userSpaceOnUse"
       r="1"
       cy="0"
       cx="0"
       fy="0"
       fx="0">
      <stop
         id="stop37336"
         offset="0"
         style="stop-opacity:1;stop-color:#ffffff" />
      <stop
         id="stop37338"
         offset="0.836365"
         style="stop-opacity:1;stop-color:#26b9f1" />
      <stop
         id="stop37340"
         offset="1"
         style="stop-opacity:1;stop-color:#26b9f1" />
    </radialGradient>
    <radialGradient
       id="radialGradient37372"
       spreadMethod="pad"
       gradientTransform="matrix(28.419449,0,0,-28.419449,202.7002,483.9165)"
       gradientUnits="userSpaceOnUse"
       r="1"
       cy="0"
       cx="0"
       fy="0"
       fx="0">
      <stop
         id="stop37374"
         offset="0"
         style="stop-opacity:1;stop-color:#ffffff" />
      <stop
         id="stop37376"
         offset="0.836365"
         style="stop-opacity:1;stop-color:#26b9f1" />
      <stop
         id="stop37378"
         offset="1"
         style="stop-opacity:1;stop-color:#26b9f1" />
    </radialGradient>
    <radialGradient
       id="radialGradient37410"
       spreadMethod="pad"
       gradientTransform="matrix(20.388,0,0,-20.388,214.24756,403.40625)"
       gradientUnits="userSpaceOnUse"
       r="1"
       cy="0"
       cx="0"
       fy="0"
       fx="0">
      <stop
         id="stop37412"
         offset="0"
         style="stop-opacity:1;stop-color:#ffffff" />
      <stop
         id="stop37414"
         offset="0.836365"
         style="stop-opacity:1;stop-color:#26b9f1" />
      <stop
         id="stop37416"
         offset="1"
         style="stop-opacity:1;stop-color:#26b9f1" />
    </radialGradient>
    <radialGradient
       id="radialGradient38084"
       spreadMethod="pad"
       gradientTransform="matrix(110.4604,0,0,-106.71472,100.0127,220.63477)"
       gradientUnits="userSpaceOnUse"
       r="1"
       cy="0"
       cx="0"
       fy="0"
       fx="0">
      <stop
         id="stop38086"
         offset="0"
         style="stop-opacity:1;stop-color:#f68712" />
      <stop
         id="stop38088"
         offset="0.800003"
         style="stop-opacity:1;stop-color:#f14624" />
      <stop
         id="stop38090"
         offset="1"
         style="stop-opacity:1;stop-color:#f14624" />
    </radialGradient>
    <radialGradient
       id="radialGradient38106"
       spreadMethod="pad"
       gradientTransform="matrix(48.666718,0,0,-47.016434,169.54785,207.1582)"
       gradientUnits="userSpaceOnUse"
       r="1"
       cy="0"
       cx="0"
       fy="0"
       fx="0">
      <stop
         id="stop38108"
         offset="0"
         style="stop-opacity:1;stop-color:#f68712" />
      <stop
         id="stop38110"
         offset="0.800003"
         style="stop-opacity:1;stop-color:#f14624" />
      <stop
         id="stop38112"
         offset="1"
         style="stop-opacity:1;stop-color:#f14624" />
    </radialGradient>
    <radialGradient
       id="radialGradient38128"
       spreadMethod="pad"
       gradientTransform="matrix(50.524063,0,0,-50.524048,158.64404,169.1084)"
       gradientUnits="userSpaceOnUse"
       r="1"
       cy="0"
       cx="0"
       fy="0"
       fx="0">
      <stop
         id="stop38130"
         offset="0"
         style="stop-opacity:1;stop-color:#f68712" />
      <stop
         id="stop38132"
         offset="0.800003"
         style="stop-opacity:1;stop-color:#f14624" />
      <stop
         id="stop38134"
         offset="1"
         style="stop-opacity:1;stop-color:#f14624" />
    </radialGradient>
    <radialGradient
       id="radialGradient38166"
       spreadMethod="pad"
       gradientTransform="matrix(23.083313,0,0,-23.083298,146.67578,192.9541)"
       gradientUnits="userSpaceOnUse"
       r="1"
       cy="0"
       cx="0"
       fy="0"
       fx="0">
      <stop
         id="stop38168"
         offset="0"
         style="stop-opacity:1;stop-color:#393536" />
      <stop
         id="stop38170"
         offset="1"
         style="stop-opacity:1;stop-color:#231f20" />
    </radialGradient>
    <radialGradient
       id="radialGradient38186"
       spreadMethod="pad"
       gradientTransform="matrix(33.620956,0,0,-33.620956,150.55615,193.26074)"
       gradientUnits="userSpaceOnUse"
       r="1"
       cy="0"
       cx="0"
       fy="0"
       fx="0">
      <stop
         id="stop38188"
         offset="0"
         style="stop-opacity:1;stop-color:#423e3f" />
      <stop
         id="stop38190"
         offset="1"
         style="stop-opacity:1;stop-color:#231f20" />
    </radialGradient>
    <radialGradient
       id="radialGradient38222"
       spreadMethod="pad"
       gradientTransform="matrix(19.773514,17.710953,17.710953,-19.773514,141.60254,242.31055)"
       gradientUnits="userSpaceOnUse"
       r="1"
       cy="0"
       cx="0"
       fy="0"
       fx="0">
      <stop
         id="stop38224"
         offset="0"
         style="stop-opacity:1;stop-color:#f68712" />
      <stop
         id="stop38226"
         offset="0.800003"
         style="stop-opacity:1;stop-color:#f14624" />
      <stop
         id="stop38228"
         offset="1"
         style="stop-opacity:1;stop-color:#f14624" />
    </radialGradient>
    <radialGradient
       id="radialGradient38244"
       spreadMethod="pad"
       gradientTransform="matrix(24.206802,-20.083206,-20.083206,-24.206802,160.19287,236.56543)"
       gradientUnits="userSpaceOnUse"
       r="1"
       cy="0"
       cx="0"
       fy="0"
       fx="0">
      <stop
         id="stop38246"
         offset="0"
         style="stop-opacity:1;stop-color:#f68712" />
      <stop
         id="stop38248"
         offset="0.800003"
         style="stop-opacity:1;stop-color:#f14624" />
      <stop
         id="stop38250"
         offset="1"
         style="stop-opacity:1;stop-color:#f14624" />
    </radialGradient>
    <linearGradient
       id="linearGradient42419"
       spreadMethod="pad"
       gradientTransform="matrix(0,155.84996,-155.84996,0,292.00022,71.674822)"
       gradientUnits="userSpaceOnUse"
       y2="0"
       x2="1"
       y1="0"
       x1="0">
      <stop
         id="stop42421"
         offset="0"
         style="stop-opacity:1;stop-color:#50ade5" />
      <stop
         id="stop42423"
         offset="0.432632"
         style="stop-opacity:1;stop-color:#3467b4" />
      <stop
         id="stop42425"
         offset="0.755753"
         style="stop-opacity:1;stop-color:#264184" />
      <stop
         id="stop42427"
         offset="1"
         style="stop-opacity:1;stop-color:#264184" />
    </linearGradient>
    <linearGradient
       id="linearGradient42443"
       spreadMethod="pad"
       gradientTransform="matrix(0,157.8382,-157.8382,0,417.31244,79.769558)"
       gradientUnits="userSpaceOnUse"
       y2="0"
       x2="1"
       y1="0"
       x1="0">
      <stop
         id="stop42445"
         offset="0"
         style="stop-opacity:1;stop-color:#50ade5" />
      <stop
         id="stop42447"
         offset="0.432632"
         style="stop-opacity:1;stop-color:#3467b4" />
      <stop
         id="stop42449"
         offset="0.755753"
         style="stop-opacity:1;stop-color:#264184" />
      <stop
         id="stop42451"
         offset="0.988953"
         style="stop-opacity:1;stop-color:#50ade5" />
      <stop
         id="stop42453"
         offset="1"
         style="stop-opacity:1;stop-color:#50ade5" />
    </linearGradient>
    <linearGradient
       id="linearGradient42469"
       spreadMethod="pad"
       gradientTransform="matrix(0,157.84002,-157.84002,0,166.68898,79.769558)"
       gradientUnits="userSpaceOnUse"
       y2="0"
       x2="1"
       y1="0"
       x1="0">
      <stop
         id="stop42471"
         offset="0"
         style="stop-opacity:1;stop-color:#50ade5" />
      <stop
         id="stop42473"
         offset="0.432632"
         style="stop-opacity:1;stop-color:#3467b4" />
      <stop
         id="stop42475"
         offset="0.755753"
         style="stop-opacity:1;stop-color:#264184" />
      <stop
         id="stop42477"
         offset="0.988953"
         style="stop-opacity:1;stop-color:#50ade5" />
      <stop
         id="stop42479"
         offset="1"
         style="stop-opacity:1;stop-color:#50ade5" />
    </linearGradient>
    <linearGradient
       id="linearGradient42495"
       spreadMethod="pad"
       gradientTransform="matrix(119.90432,119.90429,-119.90429,119.90429,272.63941,92.214703)"
       gradientUnits="userSpaceOnUse"
       y2="0"
       x2="1"
       y1="0"
       x1="0">
      <stop
         id="stop42497"
         offset="0"
         style="stop-opacity:1;stop-color:#747273" />
      <stop
         id="stop42499"
         offset="0.0784454"
         style="stop-opacity:1;stop-color:#656263" />
      <stop
         id="stop42501"
         offset="0.769943"
         style="stop-opacity:1;stop-color:#393536" />
      <stop
         id="stop42503"
         offset="0.920486"
         style="stop-opacity:1;stop-color:#565353" />
      <stop
         id="stop42505"
         offset="0.996231"
         style="stop-opacity:1;stop-color:#abaaaa" />
      <stop
         id="stop42507"
         offset="1"
         style="stop-opacity:1;stop-color:#abaaaa" />
    </linearGradient>
    <linearGradient
       id="linearGradient42523"
       spreadMethod="pad"
       gradientTransform="matrix(119.907,119.907,-119.907,119.907,225.79191,139.0622)"
       gradientUnits="userSpaceOnUse"
       y2="0"
       x2="1"
       y1="0"
       x1="0">
      <stop
         id="stop42525"
         offset="0"
         style="stop-opacity:1;stop-color:#747273" />
      <stop
         id="stop42527"
         offset="0.0784454"
         style="stop-opacity:1;stop-color:#656263" />
      <stop
         id="stop42529"
         offset="0.769943"
         style="stop-opacity:1;stop-color:#393536" />
      <stop
         id="stop42531"
         offset="0.920486"
         style="stop-opacity:1;stop-color:#565353" />
      <stop
         id="stop42533"
         offset="0.996231"
         style="stop-opacity:1;stop-color:#abaaaa" />
      <stop
         id="stop42535"
         offset="1"
         style="stop-opacity:1;stop-color:#abaaaa" />
    </linearGradient>
    <linearGradient
       id="linearGradient42551"
       spreadMethod="pad"
       gradientTransform="matrix(0,-56.676048,56.676048,0,334.2765,193.29816)"
       gradientUnits="userSpaceOnUse"
       y2="0"
       x2="1"
       y1="0"
       x1="0">
      <stop
         id="stop42553"
         offset="0"
         style="stop-opacity:1;stop-color:#4084c9" />
      <stop
         id="stop42555"
         offset="0.432632"
         style="stop-opacity:1;stop-color:#20599d" />
      <stop
         id="stop42557"
         offset="1"
         style="stop-opacity:1;stop-color:#20599d" />
    </linearGradient>
    <linearGradient
       id="linearGradient42573"
       spreadMethod="pad"
       gradientTransform="matrix(0,-56.676048,56.676048,0,249.72784,193.29816)"
       gradientUnits="userSpaceOnUse"
       y2="0"
       x2="1"
       y1="0"
       x1="0">
      <stop
         id="stop42575"
         offset="0"
         style="stop-opacity:1;stop-color:#4084c9" />
      <stop
         id="stop42577"
         offset="0.432632"
         style="stop-opacity:1;stop-color:#20599d" />
      <stop
         id="stop42579"
         offset="1"
         style="stop-opacity:1;stop-color:#20599d" />
    </linearGradient>
    <linearGradient
       id="linearGradient42595"
       spreadMethod="pad"
       gradientTransform="matrix(0,-56.674893,56.674893,0,366.54842,193.29719)"
       gradientUnits="userSpaceOnUse"
       y2="0"
       x2="1"
       y1="0"
       x1="0">
      <stop
         id="stop42597"
         offset="0"
         style="stop-opacity:1;stop-color:#4084c9" />
      <stop
         id="stop42599"
         offset="0.432632"
         style="stop-opacity:1;stop-color:#20599d" />
      <stop
         id="stop42601"
         offset="1"
         style="stop-opacity:1;stop-color:#20599d" />
    </linearGradient>
    <linearGradient
       id="linearGradient42617"
       spreadMethod="pad"
       gradientTransform="matrix(0,-56.674893,56.674893,0,217.45397,193.29719)"
       gradientUnits="userSpaceOnUse"
       y2="0"
       x2="1"
       y1="0"
       x1="0">
      <stop
         id="stop42619"
         offset="0"
         style="stop-opacity:1;stop-color:#4084c9" />
      <stop
         id="stop42621"
         offset="0.432632"
         style="stop-opacity:1;stop-color:#20599d" />
      <stop
         id="stop42623"
         offset="1"
         style="stop-opacity:1;stop-color:#20599d" />
    </linearGradient>
    <linearGradient
       id="linearGradient47152"
       spreadMethod="pad"
       gradientTransform="matrix(38.696379,0,0,38.69638,269.49774,54.992069)"
       gradientUnits="userSpaceOnUse"
       y2="0"
       x2="1"
       y1="0"
       x1="0">
      <stop
         id="stop47154"
         offset="0"
         style="stop-opacity:1;stop-color:#8ed023" />
      <stop
         id="stop47156"
         offset="1"
         style="stop-opacity:1;stop-color:#47b6d6" />
    </linearGradient>
    <linearGradient
       id="linearGradient47172"
       spreadMethod="pad"
       gradientTransform="matrix(165.43183,0,0,165.43183,206.12491,103.44546)"
       gradientUnits="userSpaceOnUse"
       y2="0"
       x2="1"
       y1="0"
       x1="0">
      <stop
         id="stop47174"
         offset="0"
         style="stop-opacity:1;stop-color:#8ed023" />
      <stop
         id="stop47176"
         offset="1"
         style="stop-opacity:1;stop-color:#47b6d6" />
    </linearGradient>
    <linearGradient
       id="linearGradient47192"
       spreadMethod="pad"
       gradientTransform="matrix(165.43183,0,0,165.43183,206.12491,166.63294)"
       gradientUnits="userSpaceOnUse"
       y2="0"
       x2="1"
       y1="0"
       x1="0">
      <stop
         id="stop47194"
         offset="0"
         style="stop-opacity:1;stop-color:#8ed023" />
      <stop
         id="stop47196"
         offset="1"
         style="stop-opacity:1;stop-color:#47b6d6" />
    </linearGradient>
    <linearGradient
       id="linearGradient47212"
       spreadMethod="pad"
       gradientTransform="matrix(46.817571,0,0,46.817573,265.43204,201.11908)"
       gradientUnits="userSpaceOnUse"
       y2="0"
       x2="1"
       y1="0"
       x1="0">
      <stop
         id="stop47214"
         offset="0"
         style="stop-opacity:1;stop-color:#8ed023" />
      <stop
         id="stop47216"
         offset="1"
         style="stop-opacity:1;stop-color:#47b6d6" />
    </linearGradient>
    <linearGradient
       id="linearGradient47232"
       spreadMethod="pad"
       gradientTransform="matrix(113.30896,0,0,113.30896,232.1872,185.63171)"
       gradientUnits="userSpaceOnUse"
       y2="0"
       x2="1"
       y1="0"
       x1="0">
      <stop
         id="stop47234"
         offset="0"
         style="stop-opacity:1;stop-color:#8ed023" />
      <stop
         id="stop47236"
         offset="1"
         style="stop-opacity:1;stop-color:#47b6d6" />
    </linearGradient>
    <linearGradient
       id="linearGradient47452"
       spreadMethod="pad"
       gradientTransform="matrix(11.861412,-87.773839,87.773839,11.861412,409.08948,247.61133)"
       gradientUnits="userSpaceOnUse"
       y2="0"
       x2="1"
       y1="0"
       x1="0">
      <stop
         id="stop47454"
         offset="0"
         style="stop-opacity:1;stop-color:#8ed023" />
      <stop
         id="stop47456"
         offset="1"
         style="stop-opacity:1;stop-color:#47b6d6" />
    </linearGradient>
    <linearGradient
       id="linearGradient47472"
       spreadMethod="pad"
       gradientTransform="matrix(171.89239,171.89239,-171.89239,171.89239,133.77771,75.055577)"
       gradientUnits="userSpaceOnUse"
       y2="0"
       x2="1"
       y1="0"
       x1="0">
      <stop
         id="stop47474"
         offset="0"
         style="stop-opacity:1;stop-color:#f9cc07" />
      <stop
         id="stop47476"
         offset="1"
         style="stop-opacity:1;stop-color:#8ed023" />
    </linearGradient>
    <linearGradient
       id="linearGradient47492"
       spreadMethod="pad"
       gradientTransform="matrix(-224.77249,132.25428,-132.25428,-224.77249,386.71939,127.92709)"
       gradientUnits="userSpaceOnUse"
       y2="0"
       x2="1"
       y1="0"
       x1="0">
      <stop
         id="stop47494"
         offset="0"
         style="stop-opacity:1;stop-color:#47b6d6" />
      <stop
         id="stop47496"
         offset="1"
         style="stop-opacity:1;stop-color:#2f3e9c" />
    </linearGradient>
    <linearGradient
       id="linearGradient47652"
       spreadMethod="pad"
       gradientTransform="matrix(-225.01944,132.39955,-132.39955,-225.01944,370.51538,99.845091)"
       gradientUnits="userSpaceOnUse"
       y2="0"
       x2="1"
       y1="0"
       x1="0">
      <stop
         id="stop47654"
         offset="0"
         style="stop-opacity:1;stop-color:#47b6d6" />
      <stop
         id="stop47656"
         offset="1"
         style="stop-opacity:1;stop-color:#2f3e9c" />
    </linearGradient>
  </defs>
  <metadata
     id="metadata36451">
    <rdf:RDF>
      <cc:Work
         rdf:about="">
        <dc:format>image/svg+xml</dc:format>
        <dc:type
           rdf:resource="http://purl.org/dc/dcmitype/StillImage" />
      </cc:Work>
    </rdf:RDF>
  </metadata>
  <g
     id="layer1">
    <path
       id="path47458"
       style="fill:url(#linearGradient47452);stroke:none"
       d="m 381.64069,118.09281 c 1.73586,-0.50913 3.56393,-0.79377 5.46416,-0.79377 l 0,0 c 10.67976,0 19.34303,8.66328 19.34303,19.34705 l 0,0 c 0,2.57372 -0.50913,5.02317 -1.41915,7.26817 l 0,0 18.20851,35.56713 c 2.05657,-0.88998 4.32562,-1.39109 6.71494,-1.39109 l 0,0 c 0.32873,0 0.65345,0.0281 0.97817,0.0481 l 0,0 c -8.07797,3.1871 -13.80671,11.04859 -13.80671,20.26509 l 0,0 c 0,3.53186 0.86191,6.85926 2.35323,9.81384 l 0,0 c -1.41114,-1.1225 -2.65791,-2.44544 -3.65212,-3.96082 l 0,0 -49.69056,26.8758 c 4.32161,3.2793 7.32029,8.19423 8.07797,13.83077 l 0,0 52.60103,-28.44328 c 3.46371,2.32116 7.62898,3.68019 12.10694,3.68019 l 0,0 c 12.03879,0 21.7965,-9.76172 21.7965,-21.7965 l 0,0 c 0,-11.75014 -9.30471,-21.3034 -20.93859,-21.75239 l 0,0 -37.55957,-73.36724 -20.57778,14.80895 z" />
    <path
       id="path47478"
       style="fill:url(#linearGradient47472);stroke:none"
       d="m 166.87486,86.815221 -43.34845,-0.877954 c 0.004,0.196437 0.0281,0.392874 0.0281,0.597329 l 0,0 c 0,2.902458 -0.68954,5.632532 -1.87217,8.081982 l 0,0 c 0.0481,-0.613365 0.0922,-1.230739 0.0922,-1.85613 l 0,0 c 0,-11.914508 -9.65749,-21.571995 -21.572,-21.571995 l 0,0 c -11.914507,0 -21.571994,9.657487 -21.571994,21.571995 l 0,0 c 0,11.914512 9.657487,21.576002 21.571994,21.576002 l 0,0 c 8.65125,0 16.09581,-5.11137 19.53146,-12.46373 l 0,0 45.68965,0.92606 c 2.53765,14.14347 14.87309,24.87936 29.74217,24.87936 l 0,0 c 9.24457,0 17.50295,-4.15725 23.05129,-10.68778 l 0,0 c -0.65345,3.85658 -2.37729,7.35235 -4.86282,10.16261 l 0,0 38.83039,45.34488 c -1.14254,2.59778 -1.78797,5.46015 -1.78797,8.48288 l 0,0 c 0,11.66595 9.46105,21.127 21.13101,21.127 l 0,0 c 3.19511,0 6.21783,-0.72962 8.93588,-2.00446 l 0,0 50.32798,40.6745 c -0.0722,0.69354 -0.10824,1.3951 -0.10824,2.10468 l 0,0 c 0,11.54569 9.36483,20.90652 20.90651,20.90652 l 0,0 c 11.5497,0 20.90651,-9.36083 20.90651,-20.90652 l 0,0 c 0,-11.54569 -9.35681,-20.90651 -20.90651,-20.90651 l 0,0 c -4.90692,0 -9.40893,1.70379 -12.98088,4.53809 l 0,0 -45.70168,-36.94219 c -1.63965,2.50959 -3.81248,4.6263 -6.34211,6.23788 l 0,0 c 3.76437,-3.81649 6.08955,-9.04813 6.08955,-14.82899 l 0,0 c 0,-11.66997 -9.46105,-21.13102 -21.12701,-21.13102 l 0,0 c -4.11716,0 -7.94167,1.19867 -11.18889,3.2352 l 0,0 c 0.86993,-0.87394 1.80401,-1.68775 2.81827,-2.39332 l 0,0 -41.57651,-48.54802 c 2.43743,-4.35368 3.83654,-9.36884 3.83654,-14.712731 l 0,0 c 0,-16.705167 -13.54614,-30.243288 -30.25131,-30.243288 l 0,0 c -12.96484,0 -23.98937,8.166169 -28.29094,19.62767" />
    <path
       id="path47498"
       style="fill:url(#linearGradient47492);stroke:none"
       d="m 363.52839,122.34226 c 0,2.78219 0.38085,5.46015 1.0343,8.04591 l 0,0 -27.08827,19.49537 c -3.33542,-2.22495 -7.33632,-3.52384 -11.6419,-3.52384 l 0,0 c -11.61384,0 -21.02277,9.40893 -21.02277,21.01876 l 0,0 c 0,11.60583 9.40893,21.01476 21.02277,21.01476 l 0,0 c 11.60182,0 21.01075,-9.40893 21.01075,-21.01476 l 0,0 c 0,-1.4392 -0.14432,-2.84633 -0.41693,-4.20535 l 0,0 23.77289,-17.11408 c -1.25078,-2.249 -2.04855,-4.77863 -2.32116,-7.46862 l 0,0 c 5.64055,9.81785 16.20806,16.44459 28.34306,16.44459 l 0,0 c 18.05216,0 32.69274,-14.64057 32.69274,-32.69274 l 0,0 c 0,-18.06018 -14.64058,-32.696742 -32.69274,-32.696742 l 0,0 c -18.06018,0 -32.69274,14.636562 -32.69274,32.696742" />
    <path
       d="m 120.72293,303.08158 -0.004,-2.50959 c 2.21693,0.78174 4.60625,1.17462 7.17997,1.1666 3.63208,-0.008 5.44412,-1.33898 5.44011,-3.99689 -0.004,-2.26504 -1.34299,-3.39556 -4.02095,-3.39155 l -2.71805,0.008 c -4.42184,0.008 -6.63476,-1.90424 -6.64278,-5.74478 -0.008,-4.03699 2.81827,-6.06149 8.47887,-6.07352 2.46147,-0.004 4.75057,0.28464 6.86728,0.87395 l 0.004,2.50958 c -2.11671,-0.78575 -4.40581,-1.17461 -6.86728,-1.16659 -3.84055,0.008 -5.75681,1.28686 -5.7528,3.84856 0.004,2.26504 1.30691,3.39555 3.90469,3.38754 l 2.71804,-0.004 c 4.49801,-0.008 6.75503,1.90824 6.76305,5.74879 0.008,4.13319 -2.71805,6.2058 -8.17018,6.21783 -2.56972,0.008 -4.96304,-0.28864 -7.17997,-0.87394"
       style="fill:#4f4c4d;fill-opacity:1;fill-rule:nonzero;stroke:none"
       id="path47510" />
    <path
       d="m 146.41649,301.55458 c 3.0989,-0.004 4.65035,-1.87618 4.64233,-5.60447 -0.008,-3.65613 -1.56348,-5.48019 -4.66237,-5.47218 -3.10291,0.008 -4.65035,1.83609 -4.64233,5.48822 0.008,3.7323 1.56348,5.59645 4.66237,5.58843 m -7.39645,-5.52429 c -0.008,-5.1675 2.44945,-7.75726 7.3724,-7.76528 4.92295,-0.008 7.38844,2.56972 7.39646,7.73722 0.012,5.15948 -2.44545,7.74523 -7.3684,7.75325 -4.90291,0.012 -7.36839,-2.56571 -7.40046,-7.72519"
       style="fill:#4f4c4d;fill-opacity:1;fill-rule:nonzero;stroke:none"
       id="path47514" />
    <path
       d="m 169.1643,303.28122 c -1.27884,0.30067 -2.65791,0.449 -4.13319,0.45301 -5.51628,0.012 -8.27842,-2.66593 -8.29045,-8.03388 -0.008,-4.97106 2.7421,-7.4646 8.25838,-7.47262 1.47929,-0.004 2.85435,0.14031 4.1372,0.43697 l 0.004,2.21292 c -1.28285,-0.29265 -2.71003,-0.43697 -4.28553,-0.43697 -3.592,0.008 -5.38398,1.75992 -5.37997,5.2557 0.008,3.88865 1.80802,5.82896 5.40402,5.82496 1.5755,-0.004 3.00268,-0.15635 4.28152,-0.45301 l 0.004,2.21292 z"
       style="fill:#4f4c4d;fill-opacity:1;fill-rule:nonzero;stroke:none"
       id="path47518" />
    <path
       d="m 175.63189,288.20488 0.0321,15.5065 -2.73408,0.008 -0.0281,-15.5065 2.73007,-0.008 z m -0.008,-5.60848 0.004,2.58174 -2.73408,0.004 -0.004,-2.58174 2.73409,-0.004 z"
       style="fill:#4f4c4d;fill-opacity:1;fill-rule:nonzero;stroke:none"
       id="path47522" />
    <path
       d="m 185.9284,296.45363 c -2.37328,0.008 -3.55591,0.84588 -3.55591,2.52161 0.004,1.67172 0.9421,2.50558 2.81025,2.50558 1.89221,-0.004 3.49177,-0.50914 4.79868,-1.51939 l -0.008,-3.21916 c -1.347,-0.19643 -2.698,-0.28864 -4.045,-0.28864 m -6.28598,2.56972 c -0.008,-3.17908 2.08864,-4.77463 6.28197,-4.78264 1.347,-0.004 2.69801,0.0922 4.045,0.28864 l 0,-1.46326 c -0.004,-1.77996 -1.39911,-2.67395 -4.18531,-2.66593 -1.59555,0.004 -3.23119,0.25256 -4.90291,0.74967 l -0.004,-2.21693 c 1.67172,-0.49711 3.30736,-0.74566 4.90291,-0.74967 4.60625,-0.004 6.91539,1.59154 6.9194,4.80268 l 0.02,10.6958 -1.53141,0 -0.95011,-1.53141 c -1.54343,1.02629 -3.22718,1.53943 -5.05124,1.54344 -3.6882,0.008 -5.53632,-1.54744 -5.54433,-4.67039"
       style="fill:#4f4c4d;fill-opacity:1;fill-rule:nonzero;stroke:none"
       id="path47526" />
    <path
       d="m 199.99089,282.54388 0.0401,21.123 -2.73008,0.004 -0.0441,-21.11899 2.73408,-0.008 z"
       style="fill:#4f4c4d;fill-opacity:1;fill-rule:nonzero;stroke:none"
       id="path47530" />
    <path
       d="m 212.28985,303.64162 -0.0401,-21.12299 3.46772,-0.008 7.78933,17.60717 7.57285,-17.63122 3.32339,-0.008 0.0401,21.11898 -2.43742,0.004 -0.0321,-17.32254 -7.46862,17.33457 -2.1568,0.008 -7.65303,-17.30651 0.0321,17.32254 -2.43743,0.004 z"
       style="fill:#4f4c4d;fill-opacity:1;fill-rule:nonzero;stroke:none"
       id="path47534" />
    <path
       d="m 241.14485,294.33933 8.38666,-0.0201 c -0.0601,-2.71805 -1.3951,-4.07306 -3.99288,-4.06905 -2.75814,0.008 -4.22139,1.36704 -4.39378,4.0891 m 4.38977,-6.26995 c 4.40981,-0.008 6.61873,2.16481 6.63075,6.52652 0,0.62138 -0.0441,1.28686 -0.13229,1.99644 l -10.88422,0.016 c 0.004,3.17106 1.86014,4.75458 5.56438,4.75057 1.75992,-0.004 3.3274,-0.20846 4.69445,-0.60133 l 0.004,2.21292 c -1.36705,0.39688 -3.03075,0.59733 -4.99111,0.60134 -5.32785,0.012 -7.99378,-2.62985 -8.00581,-7.91361 -0.008,-5.05124 2.36526,-7.58487 7.11984,-7.58888"
       style="fill:#4f4c4d;fill-opacity:1;fill-rule:nonzero;stroke:none"
       id="path47538" />
    <path
       d="m 266.2459,291.18791 c -1.10245,-0.53318 -2.36526,-0.79376 -3.78041,-0.78975 -3.12295,0.004 -4.67841,1.66771 -4.6744,4.98308 0.008,3.92875 1.57149,5.89312 4.69444,5.8851 1.41916,0 2.67796,-0.19644 3.78041,-0.5853 l -0.02,-9.49313 z m 2.75814,11.40939 c -1.8842,0.62539 -4.20135,0.93809 -6.95548,0.9461 -4.61827,0.008 -6.93142,-2.67395 -6.94345,-8.05391 -0.012,-4.95904 2.43743,-7.44457 7.34033,-7.45659 1.33898,0 2.6058,0.24053 3.79645,0.73363 l -0.012,-6.35013 2.73008,-0.008 0.0441,20.18892 z"
       style="fill:#4f4c4d;fill-opacity:1;fill-rule:nonzero;stroke:none"
       id="path47542" />
    <path
       d="m 276.43056,288.00523 0.0321,15.5065 -2.73408,0.008 -0.0321,-15.5065 2.73408,-0.008 z m -0.012,-5.60847 0.008,2.58174 -2.73408,0.004 -0.008,-2.58175 2.73408,-0.004 z"
       style="fill:#4f4c4d;fill-opacity:1;fill-rule:nonzero;stroke:none"
       id="path47546" />
    <path
       d="m 286.72667,296.25399 c -2.37328,0.008 -3.55992,0.84588 -3.55591,2.52161 0.004,1.67172 0.94209,2.50557 2.81025,2.50557 1.89221,-0.004 3.49177,-0.51314 4.79867,-1.51938 l -0.008,-3.21916 c -1.347,-0.19644 -2.69801,-0.28864 -4.045,-0.28864 m -6.28599,2.56971 c -0.008,-3.17907 2.08865,-4.77462 6.28198,-4.78264 1.34699,-0.004 2.69399,0.0922 4.045,0.28864 l -0.004,-1.46325 c 0,-1.78397 -1.39511,-2.67395 -4.1813,-2.66593 -1.59555,0.004 -3.23119,0.25256 -4.90291,0.74967 l -0.004,-2.21694 c 1.67172,-0.4971 3.30736,-0.74566 4.8989,-0.74966 4.61026,-0.004 6.91939,1.59154 6.9234,4.80268 l 0.0201,10.6958 -1.53542,0 -0.9461,-1.53141 c -1.54745,1.02628 -3.22718,1.54343 -5.05124,1.54343 -3.68821,0.008 -5.54033,-1.54744 -5.54434,-4.67039"
       style="fill:#4f4c4d;fill-opacity:1;fill-rule:nonzero;stroke:none"
       id="path47550" />
    <path
       d="m 305.63033,303.4536 -0.0441,-21.11898 3.47172,-0.008 7.78933,17.60717 7.57285,-17.63523 3.32339,-0.004 0.0401,21.11498 -2.43742,0.004 -0.0321,-17.32255 -7.46862,17.33858 -2.1568,0.004 -7.65703,-17.30651 0.0361,17.32255 -2.43742,0.004 z"
       style="fill:#4f4c4d;fill-opacity:1;fill-rule:nonzero;stroke:none"
       id="path47554" />
    <path
       d="m 338.04805,296.15617 c -2.36927,0.004 -3.55591,0.84187 -3.5519,2.5176 0.004,1.67172 0.93809,2.50557 2.81025,2.50557 1.89221,-0.004 3.48776,-0.50913 4.79467,-1.51938 l -0.004,-3.21916 c -1.35101,-0.19644 -2.698,-0.28864 -4.04901,-0.28463 m -6.28598,2.56571 c -0.004,-3.17908 2.08864,-4.77463 6.28197,-4.78264 1.347,-0.004 2.69801,0.0922 4.045,0.28864 l 0,-1.46326 c -0.004,-1.77996 -1.39911,-2.66994 -4.18531,-2.66593 -1.59555,0.004 -3.22718,0.25256 -4.8989,0.74967 l -0.008,-2.21693 c 1.67172,-0.4931 3.30736,-0.74566 4.90291,-0.74566 4.60625,-0.008 6.91539,1.59154 6.9194,4.79867 l 0.024,10.6958 -1.53542,0 -0.95011,-1.53141 c -1.54343,1.02629 -3.22317,1.54344 -5.04723,1.54344 -3.69221,0.008 -5.54033,-1.54744 -5.54834,-4.67039"
       style="fill:#4f4c4d;fill-opacity:1;fill-rule:nonzero;stroke:none"
       id="path47558" />
    <path
       d="m 349.27222,303.36741 -0.0321,-15.5065 1.84811,0 0.4931,1.9764 c 1.35502,-1.32294 2.98665,-1.98442 4.89489,-1.98842 l 0.004,2.27305 c -1.84811,0.004 -3.35146,0.66147 -4.49801,1.97239 l 0.0241,11.26907 -2.73409,0.004 z"
       style="fill:#4f4c4d;fill-opacity:1;fill-rule:nonzero;stroke:none"
       id="path47562" />
    <path
       d="m 359.2396,303.34777 -0.0401,-21.11899 2.73008,-0.008 0.016,6.82719 c 1.50335,-0.81381 3.23921,-1.21871 5.2116,-1.22272 3.85658,-0.008 5.78888,1.47929 5.79689,4.46193 0.004,2.16883 -1.46726,3.66816 -4.42183,4.50202 l 4.97506,6.53053 -3.45568,0.008 -4.94701,-6.5626 -0.004,-1.22272 c 3.41961,-0.31269 5.12741,-1.40312 5.11939,-3.26326 0,-1.49532 -1.08642,-2.24098 -3.25123,-2.23697 -1.70379,0.004 -3.37952,0.46904 -5.01917,1.3951 l 0.024,11.90649 -2.73408,0.004 z"
       style="fill:#4f4c4d;fill-opacity:1;fill-rule:nonzero;stroke:none"
       id="path47566" />
    <path
       d="m 378.658,294.06552 8.38666,-0.016 c -0.0641,-2.71805 -1.3951,-4.07707 -3.99288,-4.06905 -2.75814,0.004 -4.2254,1.36704 -4.39378,4.08509 m 4.38977,-6.26995 c 4.40981,-0.008 6.62274,2.16882 6.63075,6.52652 0,0.62539 -0.0441,1.28686 -0.13229,1.99644 l -10.88422,0.02 c 0.004,3.17106 1.86014,4.75458 5.56438,4.74656 1.76393,-0.004 3.32741,-0.20445 4.69445,-0.59732 l 0.004,2.20891 c -1.36704,0.40089 -3.03075,0.60134 -4.99111,0.60535 -5.32785,0.012 -7.99378,-2.62985 -8.00581,-7.91762 -0.012,-5.05124 2.36125,-7.58087 7.11984,-7.58888"
       style="fill:#4f4c4d;fill-opacity:1;fill-rule:nonzero;stroke:none"
       id="path47570" />
    <path
       d="m 393.33706,285.26474 1.71181,-0.004 0.59733,2.50958 4.19333,-0.008 0.008,2.21694 -3.76839,0.008 0.016,8.8998 c 0.004,1.45123 0.6294,2.17284 1.88018,2.16883 l 1.89221,-0.004 0.004,2.21693 -2.60179,0.004 c -2.59778,0.004 -3.90068,-1.38708 -3.90468,-4.17328 l -0.0281,-13.83478 z"
       style="fill:#4f4c4d;fill-opacity:1;fill-rule:nonzero;stroke:none"
       id="path47574" />
    <path
       d="m 406.33879,287.75067 0.0321,15.5065 -2.73408,0.004 -0.0321,-15.5065 2.73408,-0.004 z m -0.012,-5.61249 0.008,2.58174 -2.73408,0.004 -0.008,-2.58174 2.73408,-0.004 z"
       style="fill:#4f4c4d;fill-opacity:1;fill-rule:nonzero;stroke:none"
       id="path47578" />
    <path
       d="m 411.09537,303.24594 -0.0321,-15.5065 1.84811,-0.004 0.4931,1.98041 c 1.57952,-1.32695 3.31939,-1.98842 5.21961,-1.99243 3.87262,-0.008 5.81294,1.91225 5.82096,5.76081 l 0.016,9.73366 -2.73408,0.008 -0.0201,-9.77776 c -0.004,-2.30513 -1.15056,-3.45569 -3.44767,-3.44767 -1.56348,0 -3.04678,0.65747 -4.45391,1.96838 l 0.0241,11.27308 -2.73409,0.004 z"
       style="fill:#4f4c4d;fill-opacity:1;fill-rule:nonzero;stroke:none"
       id="path47582" />
    <path
       d="m 439.23197,290.31116 c -0.93407,-0.23251 -2.08864,-0.34877 -3.47172,-0.34476 -3.29533,0.004 -4.943,1.79599 -4.93498,5.36794 0.008,3.67217 1.56749,5.50826 4.69444,5.50024 1.41515,-0.004 2.65792,-0.2686 3.73231,-0.80179 l -0.0201,-9.72163 z m 2.75814,12.87264 c 0.004,3.74433 -2.36526,5.6165 -7.11984,5.62853 -1.91225,0.004 -3.60402,-0.23653 -5.08331,-0.72963 l -0.004,-2.21292 c 1.50735,0.48909 3.21115,0.72962 5.11137,0.72962 2.91449,-0.008 4.36973,-1.14655 4.36572,-3.40758 l -0.004,-0.74165 c -1.15858,0.49711 -2.40936,0.74566 -3.74834,0.74967 -4.90291,0.008 -7.36038,-2.60179 -7.3724,-7.82942 -0.012,-5.11137 2.57372,-7.66906 7.73721,-7.67708 2.10067,-0.004 4.12919,0.20045 6.08955,0.62138 l 0.0281,14.86908 z"
       style="fill:#4f4c4d;fill-opacity:1;fill-rule:nonzero;stroke:none"
       id="path47586" />
    <path
       id="path47658"
       style="fill:url(#linearGradient47652);stroke:none"
       d="m 127.89213,175.71702 c 0,14.06329 11.40136,25.46465 25.46465,25.46465 l 0,0 c 3.74033,0 7.28421,-0.82583 10.48333,-2.27706 l 0,0 29.10475,30.37157 c -1.35902,3.22718 -2.11671,6.76706 -2.11671,10.49134 l 0,0 c 0,14.92521 12.10293,27.02413 27.02413,27.02413 l 0,0 c 14.92521,0 27.02412,-12.09892 27.02412,-27.02413 l 0,0 c 0,-3.47172 -0.68151,-6.77507 -1.87216,-9.82185 l 0,0 c 1.36704,1.69577 2.54566,3.54388 3.47573,5.54033 l 0,0 24.30207,-17.36664 -11.35326,-11.67398 -21.37957,15.4143 c -4.95101,-5.57641 -12.15504,-9.11227 -20.19693,-9.11227 l 0,0 c -5.34389,0 -10.30693,1.57149 -14.50026,4.24544 l 0,0 -25.6611,-26.77156 c -2.39733,2.6058 -5.45613,4.60625 -8.90781,5.72473 l 0,0 c 6.08954,-4.65034 10.03833,-11.96662 10.03833,-20.229 l 0,0 c 0,-14.0673 -11.40137,-25.46466 -25.46466,-25.46466 l 0,0 c -14.06329,0 -25.46465,11.39736 -25.46465,25.46466" />
  </g>
</svg>
